# xmcd
#
# Track frame offsets:
#	151
#	13470
#	23643
#	39434
#	51027
#	63598
#	72943
#	83402
#	95825
#	107796
#	118035
#	129930
#
# Disc length: 1905 seconds
#
# Revision: 1
# Processed by: cddbd v1.5.1PL0 Copyright (c) Steve Scherf et al.
# Submitted via: audiograbber 1.83.01
#
DISCID=9d076f0c
DTITLE=perez prado - vol3
DYEAR=1900
DGENRE=mambo
TTITLE0=mambo del ruletero
TTITLE1=GUANTANAMERA
TTITLE2=CAMINA JUAN PESCAO
TTITLE3=GUADA GUADALUPE
TTITLE4=LA CHULA LINDA
TTITLE5=MAMBO BARROCO
TTITLE6=MARIA BONITA
TTITLE7=MAMBO DEL TACONAZO
TTITLE8=ANGELITOS NEGROS
TTITLE9=NI HABLAR
TTITLE10=PACHITO E CHE
TTITLE11=PACHUCO BAILARIN
EXTD=orfeon cuba
EXTT0=
EXTT1=
EXTT2=
EXTT3=
EXTT4=
EXTT5=
EXTT6=
EXTT7=
EXTT8=
EXTT9=
EXTT10=
EXTT11=
PLAYORDER=
